<svg xmlns="http://www.w3.org/2000/svg" xmlns:xlink="http://www.w3.org/1999/xlink" viewBox="0 0 334.13 58.88"><defs><style>.cls-1{fill:url(#linear-gradient);}.cls-2{fill:url(#linear-gradient-2);}.cls-3{fill:url(#linear-gradient-3);}.cls-4{fill:url(#linear-gradient-4);}.cls-5{fill:url(#linear-gradient-5);}.cls-6{fill:url(#linear-gradient-6);}.cls-7{fill:url(#linear-gradient-7);}.cls-8{fill:url(#linear-gradient-8);}</style><linearGradient id="linear-gradient" x1="23" y1="12.69" x2="35" y2="0.69" gradientTransform="translate(0 0)" gradientUnits="userSpaceOnUse"><stop offset="0" stop-color="#c1272d"/><stop offset="0.5" stop-color="#c1272d"/><stop offset="0.5" stop-color="red"/><stop offset="1" stop-color="red"/></linearGradient><linearGradient id="linear-gradient-2" x1="736.13" y1="-658.81" x2="748.13" y2="-670.81" gradientTransform="translate(771.13 -612.12) rotate(180)" gradientUnits="userSpaceOnUse"><stop offset="0" stop-color="#009245"/><stop offset="0.5" stop-color="#009245"/><stop offset="0.5" stop-color="#22b573"/><stop offset="1" stop-color="#22b573"/></linearGradient><linearGradient id="linear-gradient-3" x1="479.31" y1="284.5" x2="491.31" y2="272.5" gradientTransform="translate(330.5 -455.62) rotate(90)" gradientUnits="userSpaceOnUse"><stop offset="0" stop-color="#fcee21"/><stop offset="0.5" stop-color="#fcee21"/><stop offset="0.5" stop-color="#d9e021"/><stop offset="1" stop-color="#d9e021"/></linearGradient><linearGradient id="linear-gradient-4" x1="279.82" y1="-930.62" x2="291.82" y2="-942.62" gradientTransform="translate(942.62 315.51) rotate(-90)" gradientUnits="userSpaceOnUse"><stop offset="0" stop-color="#662d91"/><stop offset="0.5" stop-color="#662d91"/><stop offset="0.5" stop-color="#93278f"/><stop offset="1" stop-color="#93278f"/></linearGradient><linearGradient id="linear-gradient-5" x1="709.81" y1="112.72" x2="721.81" y2="100.72" gradientTransform="translate(761.06 152.7) rotate(-180)" gradientUnits="userSpaceOnUse"><stop offset="0" stop-color="#8cc63f"/><stop offset="0.5" stop-color="#8cc63f"/><stop offset="0.5" stop-color="#39b54a"/><stop offset="1" stop-color="#009245"/></linearGradient><linearGradient id="linear-gradient-6" x1="49.48" y1="-758.69" x2="61.48" y2="-770.69" gradientTransform="translate(-42.74 778.11)" gradientUnits="userSpaceOnUse"><stop offset="0" stop-color="#9e005d"/><stop offset="0.5" stop-color="#9e005d"/><stop offset="0.5" stop-color="#d4145a"/><stop offset="1" stop-color="#d4145a"/></linearGradient><linearGradient id="linear-gradient-7" x1="579.34" y1="-402.15" x2="591.34" y2="-414.15" gradientTransform="translate(420.88 631.29) rotate(-90)" gradientUnits="userSpaceOnUse"><stop offset="0" stop-color="#0071bc"/><stop offset="0.5" stop-color="#0071bc"/><stop offset="0.5" stop-color="#2e3192"/><stop offset="1" stop-color="#2e3192"/></linearGradient><linearGradient id="linear-gradient-8" x1="179.94" y1="-243.82" x2="191.94" y2="-255.82" gradientTransform="translate(-204.55 -172.51) rotate(90)" gradientUnits="userSpaceOnUse"><stop offset="0" stop-color="#f15a24"/><stop offset="0.5" stop-color="#f15a24"/><stop offset="0.5" stop-color="#f7931e"/><stop offset="1" stop-color="#f7931e"/></linearGradient></defs><title>logo</title><g id="Layer_2" data-name="Layer 2"><g id="Layer_1-2" data-name="Layer 1"><rect class="cls-1" x="23" y="0.69" width="12" height="12"/><rect class="cls-2" x="23" y="46.69" width="12" height="12"/><rect class="cls-3" x="46" y="23.69" width="12" height="12"/><rect class="cls-4" y="23.69" width="12" height="12"/><rect class="cls-5" x="39.26" y="39.96" width="12" height="12" transform="translate(-19.24 45.47) rotate(-45)"/><rect class="cls-6" x="6.74" y="7.43" width="12" height="12" transform="translate(-5.77 12.94) rotate(-45)"/><rect class="cls-7" x="6.74" y="39.96" width="12" height="12" transform="translate(-28.76 22.47) rotate(-45)"/><rect class="cls-8" x="39.26" y="7.43" width="12" height="12" transform="translate(3.76 35.94) rotate(-45)"/><path d="M72.29,5.83v4.43h7.77V16.1H72.29v4.56h8.19V26.5H65.41V0H80.48V5.83Z"/><path d="M84.08,0h8.47l4,6.85,4-6.85h8.47l-8.47,12.33,9.8,14.17h-8.29l-5.55-8.65L90.51,26.5H82.18L92.55,12.33Z"/><path d="M112.25,0H122.8a14.08,14.08,0,0,1,3.91.51,8.19,8.19,0,0,1,3,1.56,7.07,7.07,0,0,1,2,2.71,10,10,0,0,1,.71,3.94c0,3.13-.81,5.42-2.43,6.85s-3.94,2.14-7,2.14h-3.9V26.5h-6.89Zm6.89,12.16h1.16c.63,0,1.24,0,1.83-.05a4.88,4.88,0,0,0,1.58-.35,2.61,2.61,0,0,0,1.13-.95,3.49,3.49,0,0,0,.42-1.88,3.89,3.89,0,0,0-.41-2,2.45,2.45,0,0,0-1.07-1,4.32,4.32,0,0,0-1.58-.36c-.61,0-1.24-.06-1.9-.06h-1.16Z"/><path d="M141.82,5.83v4.43h7.77V16.1h-7.77v4.56H150V26.5H134.93V0H150V5.83Z"/><path d="M176.26,26.5h-8.58l-6.5-10.2h-.07V26.5h-6.89V0h10.3a13.39,13.39,0,0,1,3.66.48A7.84,7.84,0,0,1,171.09,2,7,7,0,0,1,173,4.5a8.9,8.9,0,0,1,.7,3.65,9,9,0,0,1-.37,2.62A7.17,7.17,0,0,1,172.25,13a6.58,6.58,0,0,1-1.83,1.69,7,7,0,0,1-2.49.93ZM161.11,11.88h.67a13.83,13.83,0,0,0,1.69-.11,4.7,4.7,0,0,0,1.53-.45,3,3,0,0,0,1.12-1,3.07,3.07,0,0,0,.44-1.74,3.11,3.11,0,0,0-.44-1.74,3.07,3.07,0,0,0-1.12-1,4.7,4.7,0,0,0-1.53-.45,12.09,12.09,0,0,0-1.69-.11h-.67Z"/><path d="M188.23,26.5h-6.89V5.83h-5.69V0h18.27V5.83h-5.69Z"/><path d="M65.41,33.21h9.88a13.27,13.27,0,0,1,3.68.48,7.7,7.7,0,0,1,2.85,1.46,6.64,6.64,0,0,1,1.84,2.54,9.36,9.36,0,0,1,.66,3.69c0,2.95-.75,5.09-2.27,6.43s-3.69,2-6.53,2H71.87v8.24H65.41Zm6.46,11.4H73c.6,0,1.17,0,1.72,0a4.28,4.28,0,0,0,1.48-.33,2.33,2.33,0,0,0,1.06-.88,3.32,3.32,0,0,0,.39-1.77,3.67,3.67,0,0,0-.38-1.83,2.32,2.32,0,0,0-1-.94,4.14,4.14,0,0,0-1.49-.34c-.57,0-1.16,0-1.78,0H71.87Z"/><path d="M102.46,42.8V33.21h6.46V58.06h-6.46V47.88H93.14V58.06H86.68V33.21h6.46V42.8Z"/><path d="M125.53,32.38a14.64,14.64,0,0,1,5.16.94,14.06,14.06,0,0,1,4.4,2.64,12.77,12.77,0,0,1,3,4.06,11.67,11.67,0,0,1,1.14,5.15,14.54,14.54,0,0,1-1,5.54A13,13,0,0,1,135.4,55a12.67,12.67,0,0,1-4.35,2.84,15.74,15.74,0,0,1-11,0A12.77,12.77,0,0,1,115.66,55a13,13,0,0,1-2.85-4.33,14.54,14.54,0,0,1-1-5.54A11.67,11.67,0,0,1,112.93,40,12.77,12.77,0,0,1,116,36a14.06,14.06,0,0,1,4.4-2.64A14.54,14.54,0,0,1,125.53,32.38Zm0,6.27a6.91,6.91,0,0,0-2.72.54,7.61,7.61,0,0,0-2.22,1.45,7,7,0,0,0-1.52,2.09,5.8,5.8,0,0,0-.56,2.48,7.73,7.73,0,0,0,.56,3,7.5,7.5,0,0,0,1.52,2.34,7,7,0,0,0,2.22,1.55,6.59,6.59,0,0,0,2.72.56,6.53,6.53,0,0,0,2.72-.56,6.93,6.93,0,0,0,2.23-1.55,7.56,7.56,0,0,0,2.07-5.3,5.65,5.65,0,0,0-.56-2.48,6.94,6.94,0,0,0-1.51-2.09,7.53,7.53,0,0,0-2.23-1.45A6.84,6.84,0,0,0,125.53,38.65Z"/><path d="M151.6,58.06h-6.46V38.68H139.8V33.21h17.14v5.47H151.6Z"/><path d="M171.21,32.38a14.64,14.64,0,0,1,5.16.94,14.06,14.06,0,0,1,4.4,2.64,12.92,12.92,0,0,1,3,4.06A11.67,11.67,0,0,1,185,45.17a14.54,14.54,0,0,1-1,5.54A13,13,0,0,1,181.08,55a12.77,12.77,0,0,1-4.35,2.84,15.74,15.74,0,0,1-11,0A12.77,12.77,0,0,1,161.34,55a13,13,0,0,1-2.85-4.33,14.54,14.54,0,0,1-1-5.54A11.67,11.67,0,0,1,158.61,40a12.74,12.74,0,0,1,3-4.06,14.17,14.17,0,0,1,4.4-2.64A14.64,14.64,0,0,1,171.21,32.38Zm0,6.27a6.91,6.91,0,0,0-2.72.54,7.48,7.48,0,0,0-2.22,1.45,7,7,0,0,0-1.52,2.09,5.8,5.8,0,0,0-.56,2.48,7.73,7.73,0,0,0,.56,3,7.5,7.5,0,0,0,1.52,2.34,6.89,6.89,0,0,0,2.22,1.55,6.59,6.59,0,0,0,2.72.56,6.53,6.53,0,0,0,2.72-.56,6.93,6.93,0,0,0,2.23-1.55,7.48,7.48,0,0,0,1.51-2.34,7.73,7.73,0,0,0,.56-3,5.8,5.8,0,0,0-.56-2.48,6.94,6.94,0,0,0-1.51-2.09,7.53,7.53,0,0,0-2.23-1.45A6.84,6.84,0,0,0,171.21,38.65Z"/><path d="M212.7,44.18c0,.9-.06,1.78-.11,2.62a17,17,0,0,1-.35,2.49,12.73,12.73,0,0,1-.75,2.39A12.2,12.2,0,0,1,210.17,54a10.9,10.9,0,0,1-4.48,3.72,14.22,14.22,0,0,1-5.77,1.15,14.74,14.74,0,0,1-5.37-1,12,12,0,0,1-6.91-6.82,14.34,14.34,0,0,1-1-5.34,15.14,15.14,0,0,1,1-5.51A12.08,12.08,0,0,1,190.4,36a12.31,12.31,0,0,1,4.26-2.7,15.36,15.36,0,0,1,5.49-1,12.69,12.69,0,0,1,6.72,1.74,11.54,11.54,0,0,1,4.49,5.22l-6.14,2.57a6.44,6.44,0,0,0-2-2.87A5.26,5.26,0,0,0,199.85,38a5.59,5.59,0,0,0-2.8.69,6.16,6.16,0,0,0-2,1.81A8.19,8.19,0,0,0,193.81,43a9.67,9.67,0,0,0,0,5.67,8.11,8.11,0,0,0,1.26,2.49,6.36,6.36,0,0,0,2,1.76,6.34,6.34,0,0,0,6.38-.39,4.29,4.29,0,0,0,1.65-3.25h-5.27V44.18Z"/><path d="M236.19,58.06h-8.05l-6.09-9.56H222v9.56h-6.46V33.21h9.65a13,13,0,0,1,3.44.44A7.5,7.5,0,0,1,231.34,35a6.4,6.4,0,0,1,1.81,2.39,8.23,8.23,0,0,1,.66,3.43,8.64,8.64,0,0,1-.35,2.45,6.79,6.79,0,0,1-1,2.11A6.34,6.34,0,0,1,230.71,47a6.5,6.5,0,0,1-2.34.88ZM222,44.35h.63a12.08,12.08,0,0,0,1.58-.1,4.41,4.41,0,0,0,1.43-.43,2.81,2.81,0,0,0,1.06-.94,3.45,3.45,0,0,0,0-3.26,2.81,2.81,0,0,0-1.06-.94,4.41,4.41,0,0,0-1.43-.43,14.11,14.11,0,0,0-1.58-.1H222Z"/><path d="M245.31,53.74l-1.71,4.32h-6.86l9.56-24.85h7l9.36,24.85h-6.89l-1.61-4.32Zm4.52-12.85h-.07l-2.67,7.91h5.37Z"/><path d="M264.48,33.21h9.89a13.27,13.27,0,0,1,3.68.48,7.65,7.65,0,0,1,2.84,1.46,6.56,6.56,0,0,1,1.85,2.54,9.36,9.36,0,0,1,.66,3.69q0,4.42-2.28,6.43c-1.51,1.34-3.69,2-6.52,2h-3.66v8.24h-6.46Zm6.46,11.4H272c.59,0,1.17,0,1.71,0a4.23,4.23,0,0,0,1.48-.33,2.28,2.28,0,0,0,1.06-.88,3.31,3.31,0,0,0,.4-1.77,3.67,3.67,0,0,0-.38-1.83,2.34,2.34,0,0,0-1-.94,4,4,0,0,0-1.48-.34c-.57,0-1.17,0-1.78,0h-1.09Z"/><path d="M301.54,42.8V33.21H308V58.06h-6.46V47.88h-9.33V58.06h-6.46V33.21h6.46V42.8Z"/><path d="M309.35,33.21h7.74L321.73,40l4.65-6.75h7.75L325,46.13V58.06h-6.46V46.13Z"/></g></g></svg>